HIERARCHY
ROOT Hips
{
  OFFSET 265.287 66.7526 -254.649
  CHANNELS 6 Xposition Yposition Zposition Zrotation Xrotation Yrotation
  JOINT LeftUpLeg
  {
    OFFSET 8.64259 1.95398 -2.38835
    CHANNELS 3 Zrotation Xrotation Yrotation
    JOINT LeftLeg
    {
      OFFSET 43.7702 0 0
      CHANNELS 3 Zrotation Xrotation Yrotation
      JOINT LeftFoot
      {
        OFFSET 40.6238 0 0
        CHANNELS 3 Zrotation Xrotation Yrotation
        JOINT LeftToeBase
        {
          OFFSET 12.7242 0 0
          CHANNELS 3 Zrotation Xrotation Yrotation
          End Site
          {
            OFFSET 0 0 0
          }
        }
      }
    }
  }
  JOINT RightUpLeg
  {
    OFFSET -8.2249 1.95398 -2.59336
    CHANNELS 3 Zrotation Xrotation Yrotation
    JOINT RightLeg
    {
      OFFSET 43.5653 0 0
      CHANNELS 3 Zrotation Xrotation Yrotation
      JOINT RightFoot
      {
        OFFSET 40.6238 0 0
        CHANNELS 3 Zrotation Xrotation Yrotation
        JOINT RightToeBase
        {
          OFFSET 12.7242 0 0
          CHANNELS 3 Zrotation Xrotation Yrotation
          End Site
          {
            OFFSET 0 0 0
          }
        }
      }
    }
  }
  JOINT Spine
  {
    OFFSET 0.165834 0.87714 6.61349
    CHANNELS 3 Zrotation Xrotation Yrotation
    JOINT Spine1
    {
      OFFSET 7.38963 1.71661e-005 0
      CHANNELS 3 Zrotation Xrotation Yrotation
      JOINT Spine2
      {
        OFFSET 11.9445 1.14441e-005 0
        CHANNELS 3 Zrotation Xrotation Yrotation
        JOINT Spine3
        {
          OFFSET 14.7254 4.19617e-005 0
          CHANNELS 3 Zrotation Xrotation Yrotation
          JOINT Spine4
          {
            OFFSET 10.9679 0 0
            CHANNELS 3 Zrotation Xrotation Yrotation
            JOINT RightShoulder
            {
              OFFSET 2.46616 -1.6653 3.69651
              CHANNELS 3 Zrotation Xrotation Yrotation
              JOINT RightArm
              {
                OFFSET 13.0012 0 0
                CHANNELS 3 Zrotation Xrotation Yrotation
                JOINT RightForeArm
                {
                  OFFSET 28.7848 1.52588e-005 0
                  CHANNELS 3 Zrotation Xrotation Yrotation
                  JOINT RightHand
                  {
                    OFFSET 26.5688 1.52588e-005 0
                    CHANNELS 3 Zrotation Xrotation Yrotation
                    End Site
                    {
                      OFFSET 0 0 0
                    }
                  }
                }
              }
            }
            JOINT LeftShoulder
            {
              OFFSET 2.38034 -1.29275 -3.7523
              CHANNELS 3 Zrotation Xrotation Yrotation
              JOINT LeftArm
              {
                OFFSET 16.3182 6.10351e-005 0
                CHANNELS 3 Zrotation Xrotation Yrotation
                JOINT LeftForeArm
                {
                  OFFSET 27.0901 0 0
                  CHANNELS 3 Zrotation Xrotation Yrotation
                  JOINT LeftHand
                  {
                    OFFSET 24.5451 1.52588e-005 0
                    CHANNELS 3 Zrotation Xrotation Yrotation
                    End Site
                    {
                      OFFSET 0 0 0
                    }
                  }
                }
              }
            }
            JOINT Neck
            {
              OFFSET 5.0226 -0.0266342 0
              CHANNELS 3 Zrotation Xrotation Yrotation
              JOINT Head
              {
                OFFSET 6.69364 2.86102e-005 0
                CHANNELS 3 Zrotation Xrotation Yrotation
                End Site
                {
                  OFFSET 0 0 0
                }
              }
            }
          }
        }
      }
    }
  }
}
MOTION
Frames:	15
Frame Time:	0.0416667
37.7693 98.7067 -301.754 118.27 -89.1524 118.7 -175.304 0.475602 88.0793 -7.36915 19.5992 2.25556 59.6658 2.26288 13.308 34.8854 -1.7706 -2.15749 176.33 5.35122 89.5601 -16.6448 5.23109 -0.684463 60.5347 4.95631 17.4543 30.6086 -0.208557 -0.58009 1.72345 7.16148 -90.2496 12.5686 3.30483 -0.883036 0.901421 3.26277 -1.02777 -21.6675 3.41725 0.152185 -1.6549 3.41726 0.152185 120.83 -43.1522 -50.8922 22.5306 -16.1028 -26.6724 -158.125 -68.2737 -165.974 33.7094 -14.7685 -50.5396 -92.9425 -55.8982 75.5574 -21.8382 12.9761 -12.4904 9.51617 35.8678 -16.0807 0.725843 0.0212743 -0.237268 4.3713 -2.29105 -3.89762 10.302 -0.375186 9.7086 
37.7697 98.7144 -301.801 112.074 -88.9945 112.527 -175.281 0.495976 88.1023 -7.30977 19.8642 2.26225 59.7476 2.29321 13.3253 34.4704 -1.6344 -2.1496 176.196 5.3935 89.5137 -16.686 5.52189 -0.54244 60.5718 4.81851 17.6612 30.4303 -0.18754 -0.52212 1.68164 7.14815 -90.2609 12.5948 3.21626 -0.89637 0.9274 3.17369 -1.03719 -21.6398 3.3368 0.112757 -1.62713 3.33679 0.112742 120.609 -43.1283 -51.2426 22.8346 -15.898 -26.3016 -158.834 -66.0967 -166.63 32.4214 -13.6742 -49.0453 -92.6597 -56.3226 76.0496 -21.5107 14.946 -12.8229 8.89628 33.3483 -17.2983 -0.0909572 0.0176448 0.981459 4.69713 -2.98404 -2.49743 9.63223 -1.64323 7.20304 
37.7643 98.7145 -301.83 114.929 -88.7357 115.233 -175.523 0.380049 87.9067 -7.36303 19.7494 2.39592 59.6497 2.22905 13.1653 34.532 -1.66924 -1.90463 176.146 5.26335 89.3825 -16.7087 5.47539 -0.572612 60.4317 4.8716 17.387 31.0674 -0.300782 -0.334721 1.53385 7.17099 -90.2436 12.5463 2.9312 -0.826695 0.878278 2.89198 -0.95501 -21.6834 3.04402 0.0932739 -1.67077 3.04403 0.0932717 119.784 -43.8807 -52.8681 22.6704 -15.6387 -25.2223 -153.554 -70.584 -160.467 33.9406 -13.9118 -47.8442 -91.8805 -56.7096 77.2173 -21.3012 15.9708 -13.679 9.41812 32.422 -18.6078 0.149862 -0.0211442 -1.22322 6.24441 -2.59053 -2.90125 6.75627 -1.25026 8.10325 
37.7271 98.7094 -301.815 105.892 -88.833 106.343 -175.485 0.600903 88.051 -7.37234 19.5604 2.46277 59.7301 2.22547 12.7626 34.2965 -1.6095 -1.62839 176.179 5.32727 89.5343 -16.3973 5.40089 -0.491271 60.0784 4.86854 17.0937 31.4502 -0.412154 0.268122 1.47071 7.12993 -90.2332 12.6273 2.81017 -0.795091 0.95907 2.77246 -0.918093 -21.6005 2.91911 0.0869512 -1.58788 2.9191 0.0869492 119.328 -45.5255 -54.1909 21.7482 -15.0549 -23.2767 -139.868 -75.856 -145.596 34.4339 -13.4605 -46.0091 -91.5951 -56.3871 77.5452 -21.5158 16.8871 -14.2531 10.6743 32.2831 -20.7433 0.974588 0.015048 -0.754945 7.96145 -2.90568 -4.9589 3.28843 -1.20655 10.1658 
37.7363 98.7078 -301.764 116.094 -88.8438 116.329 -175.685 0.359183 87.8063 -7.41184 19.2562 2.50696 59.8882 2.30786 12.693 34.3024 -1.61364 -1.59118 176.075 5.17369 89.2882 -16.4616 5.2527 -0.527329 59.8972 4.93615 17.0286 32.2675 -0.592092 1.0312 1.3813 7.1273 -90.1797 12.6303 2.65814 -0.670276 0.961829 2.62606 -0.786694 -21.5952 2.73659 0.160191 -1.58254 2.7366 0.160182 118.754 -47.1076 -55.6332 20.9422 -14.5879 -20.9241 -97.904 -80.1752 -102.856 34.8937 -12.1477 -41.775 -90.8467 -56.1147 78.5336 -21.7368 17.3169 -14.5664 10.828 30.7352 -21.6771 0.506853 -0.0191979 -1.53247 9.97805 -3.05654 -5.58863 -0.680796 -1.46969 10.4258 
37.6963 98.7157 -301.739 107.121 -89.0757 107.557 -175.632 0.629403 87.9615 -7.49114 19.3188 2.57457 59.7647 2.29615 12.976 34.5391 -1.68788 -1.63166 176.172 5.19814 89.4947 -15.9931 5.49745 -0.492235 59.3812 5.00909 17.1076 32.8315 -0.712973 1.59719 1.27369 7.07162 -90.1445 12.7397 2.46058 -0.580602 1.07095 2.43265 -0.688406 -21.4829 2.52125 0.186221 -1.47028 2.52125 0.186215 117.98 -49.1091 -57.4632 20.12 -13.9443 -18.3655 -47.9584 -76.3899 -52.5403 33.1044 -10.0521 -37.0722 -90.1511 -55.5322 79.3947 -22.2123 17.097 -15.1656 11.1914 32.5027 -21.5007 -2.04269 -0.0835849 -2.45667 10.7266 -3.39487 -6.74371 -2.82575 -1.68222 10.6742 
37.6345 98.7079 -301.743 106.398 -89.2917 106.895 -175.466 0.678878 88.0764 -7.43807 19.3798 2.47489 59.7075 2.27738 13.1027 34.5332 -1.69275 -1.51767 176.334 5.23032 89.6283 -15.8106 5.75712 -0.59642 58.9875 5.13977 17.2447 33.1628 -0.787208 2.01637 1.16284 7.05073 -90.1123 12.7797 2.25564 -0.493169 1.11053 2.23175 -0.592018 -21.4403 2.29952 0.207907 -1.42764 2.29951 0.207899 117.014 -50.0901 -59.2233 20.2664 -13.4104 -16.0043 -39.9549 -72.6744 -45.3234 27.8508 -6.02203 -28.5874 -89.5548 -55.0032 80.1379 -22.6473 16.7461 -15.8412 10.3896 33.9054 -19.7127 -1.74406 -0.0692211 -1.19982 12.9822 -3.59622 -6.9159 -7.08651 -2.08381 9.92993 
37.6485 98.7063 -301.773 118.275 -88.9011 118.714 -175.582 0.41882 88.0336 -7.53031 19.2372 2.57973 59.8077 2.2966 12.7325 34.5429 -1.6862 -1.68178 176.209 4.90738 89.509 -15.8036 6.31808 -0.563956 58.7499 5.30906 17.5583 33.5349 -0.891355 2.81028 1.058 7.06949 -90.042 12.7401 2.08122 -0.330742 1.07077 2.06464 -0.422059 -21.4777 2.08436 0.310315 -1.46502 2.08436 0.310325 116.579 -51.8904 -60.3617 19.8627 -12.5975 -13.2911 -26.1049 -63.7415 -32.1739 24.8794 -4.39293 -24.2746 -89.1482 -53.5539 80.449 -24.1518 15.6314 -16.2652 9.77178 35.0412 -17.5908 -2.61416 -0.0981731 -1.95115 14.0557 -4.48791 -10.3802 -9.47957 -2.35651 13.2463 
37.5922 98.7127 -301.853 118.376 -88.6399 118.494 -175.777 0.358393 87.75 -7.57205 19.3298 2.57543 59.8376 2.32947 12.8217 34.4775 -1.66501 -1.68032 176.068 4.99073 89.1929 -16.1007 7.16566 -0.609522 58.6672 5.53721 18.2868 32.917 -0.862695 3.39459 0.912806 7.07236 -90.026 12.7328 1.80055 -0.265219 1.06309 1.78713 -0.344234 -21.482 1.79698 0.288362 -1.46931 1.79698 0.288356 115.028 -51.9854 -62.7055 20.6997 -11.828 -10.5812 -19.0175 -54.8047 -26.6638 19.126 -2.43616 -18.8648 -88.9835 -54.246 80.813 -23.1445 16.0963 -17.0703 7.51957 35.4126 -14.9465 -5.24604 -0.121539 -3.13323 14.7035 -4.43418 -10.4683 -11.4386 -2.49639 13.9656 
37.5295 98.734 -301.935 123.363 -88.387 123.369 -175.845 0.20421 87.6849 -7.67321 19.4529 2.6054 59.9331 2.39395 12.8229 34.172 -1.55929 -1.78481 176.133 4.82328 89.1501 -16.1287 8.1809 -0.763945 58.482 5.79616 19.1153 32.9206 -0.91107 4.02525 0.750614 7.10298 -89.9911 12.67 1.49523 -0.158078 0.99993 1.48682 -0.223758 -21.542 1.47359 0.298701 -1.52934 1.47359 0.2987 113.783 -52.5876 -64.6978 21.2851 -11.0865 -8.51251 -15.1944 -47.5446 -24.7814 13.999 -1.19346 -14.1172 -87.8503 -53.5318 82.3204 -23.896 16.0376 -17.0092 7.1609 33.7199 -14.4788 -1.85823 -0.0826859 -2.06069 15.3799 -4.13583 -10.1577 -13.1869 -2.39126 13.3706 
37.4914 98.7587 -301.985 128.535 -88.0473 128.302 -175.887 -0.0574467 87.5203 -7.78429 19.8822 2.52592 60.0357 2.52017 13.2663 33.919 -1.45758 -2.08105 175.933 4.65311 88.8668 -16.4091 8.89402 -0.751965 58.6195 5.93602 19.9286 32.315 -0.820716 3.71546 0.643254 7.14178 -89.9403 12.5914 1.30634 -0.0330024 0.921054 1.30362 -0.0904808 -21.6191 1.25585 0.361199 -1.60645 1.25585 0.361187 112.783 -52.9286 -66.2571 22.0913 -10.2825 -6.37766 -13.6732 -42.7672 -25.3807 9.62189 -0.441494 -9.77873 -87.4786 -52.7809 82.738 -25.0258 15.4363 -16.1218 9.10617 34.7143 -16.47 -2.9402 -0.0959107 -3.04048 15.1644 -4.33032 -11.799 -13.6154 -2.37515 15.3111 
37.3997 98.7864 -301.888 137.235 -87.8552 136.864 -175.923 -0.473227 87.4476 -7.88321 20.3755 2.54277 59.985 2.57451 13.7801 34.5812 -1.68416 -1.91054 175.925 4.30418 88.7985 -16.5824 9.24995 -0.865098 58.9737 5.95261 20.5166 31.7973 -0.737685 3.4308 0.538229 7.20603 -89.88 12.4617 1.12652 0.110335 0.791228 1.13029 0.0606307 -21.7474 1.04127 0.443833 -1.73476 1.04127 0.443829 112.144 -53.1159 -67.2403 23.0714 -9.7029 -5.42213 -12.8636 -40.3461 -25.767 7.82947 -0.226222 -7.78283 -87.1744 -51.5001 82.9814 -26.2454 15.2381 -15.7021 9.58264 34.6731 -16.7387 -3.11848 -0.100521 -2.74874 15.0639 -4.20127 -12.4485 -14.2244 -2.16867 15.3277 
37.119 98.7871 -301.664 142.72 -87.8363 141.797 -175.895 -0.75261 87.1585 -7.92127 21.0152 2.27949 59.7353 2.56849 14.6312 35.4123 -1.94516 -2.13625 175.77 4.44357 88.4339 -17.4917 9.21022 -0.957396 60.1732 5.65463 20.9981 31.0404 -0.514793 1.9774 0.287862 7.25358 -89.9634 12.3669 0.589464 0.00615117 0.696044 0.589162 -0.0197941 -21.8401 0.56036 0.183032 -1.82746 0.56036 0.183034 109.505 -49.9101 -70.7321 26.218 -9.25354 -4.60835 -13.2974 -40.6801 -26.2043 7.49382 -0.136242 -6.62263 -85.8779 -53.9478 85.2333 -25.3358 14.6041 -15.1629 9.87295 33.7262 -17.1266 -1.99221 -0.0840787 -2.426 14.4839 -1.91138 -7.23432 -13.9492 -1.02849 11.8047 
36.8805 98.7417 -301.101 128.829 -87.4627 127.613 -176.238 -0.894998 86.9371 -8.10062 21.3793 2.50724 60.061 2.7744 14.7543 35.9807 -2.1407 -1.95723 175.453 4.38998 88.2722 -18.2013 9.03938 -0.747383 61.9243 5.099 20.7851 31.6692 -0.459696 0.44094 0.176231 7.29849 -89.9106 12.2778 0.392675 0.134208 0.606945 0.398205 0.116781 -21.9286 0.334185 0.246022 -1.91598 0.334188 0.246019 108.739 -50.5587 -71.9961 26.7163 -8.25807 -3.58645 -13.5135 -39.9832 -26.2411 6.40387 -0.128736 -6.74254 -86.2833 -52.6705 84.4595 -26.3009 14.3367 -15.4444 9.97437 34.2741 -16.7582 -1.78063 -0.0806015 -2.39214 13.4089 -1.71998 -7.81126 -12.897 -0.656765 11.7892 
36.5332 98.623 -300.15 120.416 -87.4768 118.699 -176.486 -1.24809 86.6174 -8.1313 21.5034 2.59072 60.7668 3.16661 15.0217 36.9618 -2.46832 -1.74094 175.13 4.46947 87.9858 -19.2732 8.01398 -0.595036 64.2034 3.99566 20.1026 33.7666 -0.667069 -0.787441 0.135017 7.32601 -89.8208 12.2225 0.353266 0.317389 0.551538 0.366892 0.301519 -21.9835 0.241543 0.408883 -1.97089 0.241548 0.408888 107.669 -52.1914 -73.8326 26.667 -6.79131 -2.46745 -13.4969 -38.7199 -25.5427 6.16585 -0.133967 -6.87926 -86.8464 -51.0412 83.388 -27.4229 13.8824 -15.2822 10.4948 33.6158 -17.1383 -1.65278 -0.0780957 -2.27452 11.0369 -1.83093 -10.1581 -10.5288 -0.241098 13.6689 
